<svg width="242" height="59" fill="none" xmlns="http://www.w3.org/2000/svg"><path d="M47.02 11.902 30.804 58.448h42.564V11.902H47.02Z" fill="url(#a)"/><path d="M49.047 17.855h8.106l9.729 17.064-9.73 17.483h-8.105l8.916-17.483-8.916-17.064Z" fill="#fff"/><path d="M26.348 46.38 42.56 0H0v46.38h26.348Z" fill="url(#b)"/><path d="M24.725 40.5H16.62l-9.73-17.065 9.73-17.482h8.106L15.81 23.435 24.725 40.5ZM79.77 21.185c1.597-.24 3.21-.353 4.824-.34 2.924 0 4.735.49 6.24 1.562 1.673 1.191 2.75 3.148 2.75 6.03 0 3.198-1.17 5.276-2.653 6.47-1.667 1.337-4.152 1.933-7.12 1.933a26.375 26.375 0 0 1-4.042-.257V21.185Zm4.058 12.343c.286.04.575.055.863.046 2.631.033 4.58-1.461 4.58-5.003 0-3.067-1.755-4.51-4.206-4.51a5.565 5.565 0 0 0-1.237.103v9.364ZM108.427 30.337h-5.454v2.892h6.103v3.436H98.908V20.967h9.847v3.436h-5.782v2.534h5.454v3.4ZM118.305 36.665l-4.822-15.698h4.463l1.611 6.18a63.78 63.78 0 0 1 1.261 5.489h.043a80.038 80.038 0 0 1 1.246-5.42l1.649-6.243h4.328l-4.971 15.698-4.808-.006ZM142.413 30.337h-5.463v2.892h6.098v3.436h-10.162V20.967h9.846v3.436h-5.782v2.534h5.463v3.4ZM148.466 20.967h4.065V33.14h5.849v3.524h-9.914V20.967ZM176.92 28.658c0 5.048-2.924 8.264-7.603 8.264s-7.311-3.651-7.311-8.013c0-4.57 2.893-8.196 7.542-8.196 4.893 0 7.372 3.744 7.372 7.945Zm-10.603.176c0 2.952 1.243 4.758 3.184 4.758 1.942 0 3.12-1.97 3.12-4.797 0-2.705-1.169-4.752-3.143-4.752-1.915 0-3.158 1.893-3.158 4.79h-.003ZM182.245 21.185a30.283 30.283 0 0 1 5.003-.34c2.185 0 3.75.41 4.814 1.253a4.658 4.658 0 0 1 1.296 1.678c.3.655.448 1.375.432 2.1 0 1.59-.514 2.982-1.476 3.871-1.226 1.137-3.007 1.643-5.054 1.643-.395 0-.742-.034-.991-.052v5.327h-4.024v-15.48Zm4.033 6.926c.307.05.619.07.93.06 1.579 0 2.57-.846 2.57-2.195 0-1.171-.748-1.963-2.295-1.963a5.527 5.527 0 0 0-1.205.108v3.99ZM208.47 30.337h-5.454v2.892h6.094v3.436h-10.159V20.967h9.843v3.436h-5.778v2.534h5.454v3.4ZM214.532 21.185a31.96 31.96 0 0 1 4.904-.34c2.34 0 3.989.334 5.132 1.21.974.769 1.497 1.888 1.497 3.425 0 1.956-1.418 3.348-2.6 3.795v.082c1.01.448 1.553 1.449 1.942 2.813.457 1.594.956 3.877 1.249 4.483h-4.153c-.23-.454-.625-1.682-1.064-3.63-.413-1.881-.968-2.272-2.222-2.272h-.662v5.886h-4.023V21.185Zm4.023 6.566h1.059c1.532 0 2.416-.774 2.416-1.95 0-1.177-.749-1.846-2.1-1.858-.46-.02-.921.012-1.375.094v3.714ZM231.847 32.484a9.075 9.075 0 0 0 3.936.971c1.389 0 2.076-.499 2.076-1.291 0-.793-.681-1.192-2.397-1.8-2.557-.938-4.261-2.398-4.261-4.733 0-2.777 2.263-4.906 6.096-4.906a9.66 9.66 0 0 1 4.095.801l-.851 3.36a7.79 7.79 0 0 0-3.299-.744c-1.237 0-1.918.47-1.918 1.159 0 .795.804 1.116 2.719 1.857 2.735 1.034 3.957 2.55 3.957 4.734 0 2.722-2.047 5.017-6.468 5.017-1.831 0-3.604-.496-4.463-.955l.778-3.47Z" fill="#fff"/><defs><linearGradient id="a" x1="-84794.9" y1="63458.2" x2="-84794.9" y2="56091.9" gradientUnits="userSpaceOnUse"><stop stop-color="#ACC0FE"/><stop offset="1" stop-color="#4B086D"/></linearGradient><linearGradient id="b" x1="-89303.2" y1="65070.2" x2="-89303.2" y2="57730.6" gradientUnits="userSpaceOnUse"><stop stop-color="#ACC0FE"/><stop offset="1" stop-color="#4B086D"/></linearGradient></defs></svg>