<svg aria-hidden="true" style="position: absolute; width: 0; height: 0; overflow: hidden;" version="1.1" xmlns="http://www.w3.org/2000/svg" xmlns:xlink="http://www.w3.org/1999/xlink">
<defs>
<symbol id="facebook" viewBox="0 0 17 32">
<path fill="#fff" style="fill: var(--color1, #fff)" d="M11.167 2.010l0.188 0.031h2.614v3.015h-2.614c-0.146 0-0.288 0.010-0.425 0.031-0.123 0.015-0.235 0.054-0.334 0.112l0.004-0.002c-0.163 0.103-0.303 0.222-0.424 0.359l-0.002 0.002c-0.088 0.11-0.153 0.242-0.187 0.386l-0.001 0.007-0.032 0.158-0.016 0.111v4.834h5.102l-0.725 3.014h-4.377v15.071h-3.022v-15.071h-4.031v-3.015h4.031v-4.677c0-0.65 0.084-1.231 0.251-1.743 0.169-0.513 0.394-0.916 0.677-1.209 0.261-0.273 0.545-0.521 0.848-0.742l0.018-0.013c0.293-0.209 0.619-0.356 0.976-0.439s0.64-0.142 0.849-0.172c0.209-0.032 0.42-0.047 0.63-0.047zM11.167 0c-1.301 0-2.466 0.314-3.495 0.942-1.846 1.11-2.769 2.921-2.769 5.433v2.668h-2.017c-0.545 0-1.018 0.199-1.417 0.597-0.368 0.352-0.597 0.847-0.597 1.395 0 0.006 0 0.012 0 0.019v-0.001 3.014c0 0.544 0.199 1.015 0.598 1.413s0.871 0.596 1.417 0.596h2.015v13.030c0 0.566 0.194 1.041 0.583 1.429 0.388 0.388 0.865 0.581 1.431 0.581h3.023c0.546 0 1.018-0.193 1.417-0.581s0.599-0.864 0.599-1.428v-13.033h2.361c0.009 0 0.019 0 0.029 0 0.454 0 0.871-0.153 1.204-0.411l-0.005 0.003c0.357-0.272 0.598-0.618 0.724-1.036l0.693-3.015c0.188-0.647 0.084-1.239-0.315-1.772-0.349-0.488-0.914-0.802-1.552-0.802-0.019 0-0.037 0-0.056 0.001l0.003-0h-3.086v-1.977h2.015c0.545 0 1.018-0.199 1.415-0.597 0.4-0.398 0.599-0.869 0.599-1.413v-3.014c0-0.565-0.194-1.041-0.582-1.428-0.348-0.359-0.835-0.581-1.373-0.581-0.010 0-0.020 0-0.030 0l0.002-0h-2.581c-0.076-0.020-0.163-0.032-0.252-0.032h-0z"></path>
</symbol>
<symbol id="instagram" viewBox="0 0 32 32">
<path fill="#fff" style="fill: var(--color1, #fff)" d="M15.557 8.090c-4.123 0.001-7.466 3.344-7.466 7.467s3.343 7.467 7.467 7.467 7.467-3.343 7.467-7.467v0c-0.005-4.122-3.346-7.463-7.468-7.467h-0zM15.557 20.535c-0.023 0-0.051 0.001-0.078 0.001-2.75 0-4.978-2.229-4.978-4.978s2.229-4.978 4.978-4.978c0.028 0 0.055 0 0.082 0.001l-0.004-0c2.75 0 4.978 2.229 4.978 4.978s-2.229 4.978-4.978 4.978v0zM22.402 0h-13.689c-4.81 0.005-8.708 3.903-8.714 8.712v13.69c0.006 4.81 3.903 8.707 8.712 8.713h13.69c4.81-0.005 8.708-3.903 8.713-8.712v-13.689c-0.004-4.81-3.902-8.709-8.712-8.714h-0zM28.625 22.402c-0.004 3.435-2.788 6.219-6.222 6.223h-13.689c-3.436-0.003-6.22-2.787-6.224-6.222v-13.689c0.003-3.437 2.788-6.222 6.224-6.225h13.69c3.436 0.004 6.219 2.788 6.223 6.224v13.69zM25.514 7.467c0 0.014 0.001 0.031 0.001 0.048 0 1.031-0.836 1.867-1.867 1.867s-1.867-0.836-1.867-1.867c0-0.017 0-0.034 0.001-0.050l-0 0.002c0.027-1.010 0.852-1.819 1.866-1.819s1.84 0.809 1.866 1.817l0 0.002z"></path>
</symbol>
<symbol id="logo" viewBox="0 0 131 32">
<path fill="#000" style="fill: var(--color2, #000)" d="M25.502 6.455l-8.795 25.245h23.086v-25.245h-14.29z"></path>
<path fill="#fff" style="fill: var(--color1, #fff)" d="M26.602 9.684h4.396l5.277 9.255-5.277 9.482h-4.396l4.836-9.482-4.836-9.255z"></path>
<path fill="#000" style="fill: var(--color2, #000)" d="M14.29 25.155l8.793-25.155h-23.083v25.155h14.29z"></path>
<path fill="#fff" style="fill: var(--color1, #fff)" d="M13.41 21.966h-4.396l-5.277-9.256 5.277-9.482h4.396l-4.836 9.482 4.835 9.256zM43.265 11.49c0.866-0.13 1.741-0.191 2.616-0.184 1.586 0 2.568 0.266 3.384 0.847 0.907 0.646 1.492 1.707 1.492 3.271 0 1.734-0.635 2.862-1.439 3.509-0.904 0.725-2.252 1.048-3.862 1.048-0.057 0.001-0.124 0.001-0.191 0.001-0.706 0-1.4-0.051-2.078-0.15l0.077 0.009v-8.351zM45.466 18.185c0.155 0.022 0.312 0.030 0.468 0.025 1.427 0.018 2.484-0.792 2.484-2.713 0-1.663-0.952-2.446-2.281-2.446-0.026-0.001-0.056-0.001-0.087-0.001-0.207 0-0.409 0.021-0.604 0.060l0.019-0.003v5.079zM58.808 16.454h-2.958v1.569h3.31v1.864h-5.515v-8.514h5.341v1.864h-3.136v1.374h2.958v1.844zM64.165 19.886l-2.615-8.514h2.421l0.874 3.352c0.22 0.741 0.458 1.743 0.65 2.762l0.034 0.215h0.023c0.246-1.279 0.48-2.268 0.747-3.244l-0.071 0.305 0.894-3.386h2.347l-2.696 8.514-2.608-0.003zM77.241 16.454h-2.963v1.569h3.307v1.864h-5.512v-8.514h5.34v1.864h-3.136v1.374h2.963v1.844zM80.524 11.372h2.205v6.602h3.172v1.911h-5.377v-8.514zM95.957 15.543c0 2.738-1.586 4.482-4.124 4.482s-3.965-1.98-3.965-4.346c0-2.479 1.569-4.445 4.091-4.445 2.654 0 3.998 2.031 3.998 4.309zM90.206 15.639c0 1.601 0.674 2.581 1.727 2.581s1.692-1.068 1.692-2.602c0-1.467-0.634-2.577-1.705-2.577-1.039 0-1.713 1.027-1.713 2.598h-0.002zM98.845 11.49c0.741-0.119 1.596-0.186 2.467-0.186 0.087 0 0.173 0.001 0.26 0.002l-0.013-0c1.185 0 2.034 0.222 2.611 0.68 0.297 0.243 0.535 0.548 0.696 0.895l0.007 0.016c0.163 0.355 0.243 0.746 0.234 1.139 0 0.862-0.279 1.617-0.801 2.1-0.665 0.617-1.631 0.891-2.741 0.891-0.214 0-0.402-0.018-0.537-0.028v2.889h-2.183v-8.396zM101.032 15.247c0.166 0.027 0.336 0.038 0.504 0.033 0.856 0 1.394-0.459 1.394-1.191 0-0.635-0.406-1.065-1.245-1.065-0.018-0-0.039-0.001-0.061-0.001-0.21 0-0.415 0.022-0.612 0.063l0.019-0.003v2.164zM113.068 16.454h-2.958v1.569h3.305v1.864h-5.51v-8.514h5.339v1.864h-3.134v1.374h2.958v1.844zM116.356 11.49c0.759-0.118 1.634-0.185 2.525-0.185 0.047 0 0.095 0 0.142 0.001l-0.007-0c1.269 0 2.164 0.181 2.783 0.656 0.528 0.417 0.812 1.024 0.812 1.858 0 1.061-0.769 1.816-1.41 2.058v0.044c0.548 0.243 0.842 0.786 1.053 1.526 0.248 0.865 0.519 2.103 0.677 2.431h-2.252c-0.125-0.246-0.339-0.912-0.577-1.969-0.224-1.020-0.525-1.232-1.205-1.232h-0.359v3.192h-2.182v-8.381zM118.538 15.051h0.574c0.831 0 1.31-0.42 1.31-1.058s-0.406-1.001-1.139-1.008c-0.249-0.011-0.5 0.007-0.746 0.051v2.014zM125.748 17.618c0.621 0.32 1.354 0.513 2.13 0.527l0.004 0c0.753 0 1.126-0.271 1.126-0.7s-0.369-0.646-1.3-0.976c-1.387-0.509-2.311-1.301-2.311-2.567 0-1.506 1.227-2.661 3.306-2.661 0.038-0.001 0.083-0.002 0.128-0.002 0.757 0 1.476 0.16 2.126 0.449l-0.033-0.013-0.462 1.822c-0.524-0.253-1.139-0.402-1.789-0.404h-0.001c-0.671 0-1.040 0.255-1.040 0.629 0 0.431 0.436 0.605 1.475 1.007 1.483 0.561 2.146 1.383 2.146 2.568 0 1.476-1.11 2.721-3.508 2.721-0.993 0-1.955-0.269-2.421-0.518l0.422-1.882z"></path>
</symbol>
<symbol id="telegram" viewBox="0 0 34 32">
<path fill="#fff" style="fill: var(--color1, #fff)" d="M33.18 0.55c-0.38-0.342-0.886-0.551-1.441-0.551-0.293 0-0.572 0.058-0.826 0.164l0.014-0.005-29.179 11.742c-0.454 0.187-0.823 0.505-1.068 0.907l-0.006 0.010c-0.208 0.34-0.332 0.752-0.332 1.192 0 0.581 0.214 1.111 0.568 1.517l-0.002-0.003c0.32 0.364 0.746 0.613 1.215 0.709l7.665 1.57v9.748c0 0.448 0.129 0.886 0.372 1.259 0.244 0.374 0.59 0.665 0.993 0.837 0.406 0.171 0.849 0.215 1.28 0.128 0.43-0.087 0.825-0.304 1.132-0.622l4.311-4.416 6.449 5.812c0.383 0.351 0.896 0.565 1.459 0.565 0.244 0 0.478-0.040 0.697-0.115l-0.015 0.005c0.366-0.118 0.694-0.334 0.954-0.623 0.258-0.29 0.441-0.645 0.524-1.028l5.946-26.578c0.036-0.153 0.057-0.329 0.057-0.51 0-0.252-0.040-0.494-0.114-0.72l0.005 0.016c-0.131-0.403-0.359-0.745-0.657-1.008l-0.002-0.002zM2.244 14.037c-0.002-0.013-0.003-0.028-0.003-0.044 0-0.058 0.016-0.113 0.045-0.159l-0.001 0.001c0.036-0.060 0.092-0.105 0.158-0.127l0.002-0.001 24.411-9.824-16.337 12.086-8.022-1.643c-0.072-0.010-0.134-0.046-0.178-0.097l-0-0c-0.045-0.051-0.072-0.118-0.074-0.192v-0zM12.228 27.778c-0.057 0.058-0.136 0.094-0.224 0.094-0.043 0-0.085-0.009-0.123-0.025l0.002 0.001c-0.059-0.026-0.108-0.067-0.142-0.118l-0.001-0.001c-0.033-0.051-0.053-0.113-0.053-0.179 0-0 0-0 0-0.001v0-8.395l4.766 4.295-4.225 4.329zM26.098 28.918c-0.026 0.111-0.106 0.199-0.209 0.236l-0.002 0.001c-0.029 0.010-0.063 0.016-0.098 0.016-0.081 0-0.154-0.031-0.209-0.081l0 0-13.322-12.009 19.759-14.617-5.92 26.454z"></path>
</symbol>
<symbol id="viber" viewBox="0 0 31 32">
<path fill="#fff" style="fill: var(--color1, #fff)" d="M26.996 3.033c-0.772-0.711-3.894-2.978-10.859-3.008 0 0-8.21-0.492-12.209 3.178-2.224 2.224-3.008 5.488-3.093 9.529-0.086 4.042-0.188 11.614 7.11 13.669h0.006l-0.006 3.136s-0.049 1.27 0.79 1.526c1.009 0.315 1.604-0.651 2.57-1.69 0.534-0.584 1.126-1.251 1.708-1.925l0.103-0.123c4.996 0.418 8.83-0.542 9.268-0.681 1.009-0.329 6.715-1.058 7.638-8.63 0.96-7.815-0.462-12.751-3.026-14.98zM27.841 17.441c-0.784 6.32-5.409 6.721-6.26 6.994-0.364 0.116-3.738 0.955-7.973 0.681 0 0-3.161 3.81-4.145 4.801-0.321 0.322-0.674 0.292-0.668-0.346 0-0.42 0.025-5.209 0.025-5.209-0.006 0-0.006 0 0 0-6.187-1.713-5.822-8.161-5.755-11.535 0.066-3.372 0.705-6.138 2.588-7.998 3.385-3.068 10.356-2.613 10.356-2.613 5.889 0.025 8.709 1.799 9.366 2.395 2.169 1.858 3.274 6.308 2.466 12.828zM19.393 12.53c0.025 0.523-0.759 0.56-0.784 0.037-0.066-1.337-0.693-1.988-1.982-2.060-0.522-0.031-0.473-0.815 0.043-0.784 1.696 0.091 2.638 1.063 2.722 2.807zM20.628 13.217c0.062-2.576-1.551-4.594-4.607-4.818-0.517-0.037-0.462-0.821 0.054-0.784 3.525 0.255 5.403 2.679 5.337 5.621-0.006 0.523-0.796 0.498-0.784-0.018zM23.483 14.032c0.006 0.523-0.783 0.529-0.783 0.006-0.037-4.953-3.337-7.652-7.342-7.681-0.517-0.006-0.517-0.784 0-0.784 4.479 0.030 8.082 3.124 8.126 8.459zM22.798 19.994v0.012c-0.657 1.154-1.884 2.431-3.148 2.023l-0.012-0.018c-1.282-0.358-4.303-1.914-6.21-3.434-0.985-0.778-1.884-1.695-2.577-2.576-0.661-0.827-1.28-1.753-1.819-2.73l-0.051-0.102c-1.297-2.34-1.582-3.385-1.582-3.385-0.406-1.265 0.864-2.492 2.025-3.148h0.012c0.559-0.292 1.093-0.194 1.452 0.236 0 0 0.753 0.9 1.076 1.344 0.304 0.412 0.71 1.076 0.923 1.446 0.37 0.662 0.14 1.337-0.224 1.616l-0.73 0.583c-0.37 0.298-0.322 0.85-0.322 0.85s1.083 4.090 5.124 5.124c0 0 0.553 0.049 0.85-0.322l0.583-0.729c0.279-0.366 0.954-0.596 1.616-0.225 0.894 0.505 2.031 1.289 2.784 1.999 0.425 0.347 0.522 0.875 0.231 1.435z"></path>
</symbol>
<symbol id="whatsapp" viewBox="0 0 32 32">
<path fill="#fff" style="fill: var(--color1, #fff)" d="M27.467 4.522c-1.4-1.401-3.069-2.534-4.923-3.315l-0.101-0.038c-1.743-0.739-3.77-1.169-5.897-1.169-0.013 0-0.027 0-0.040 0h0.002c-8.539 0-15.49 6.917-15.494 15.418 0 2.718 0.714 5.37 2.068 7.708l-2.196 7.988 8.213-2.144c2.14 1.181 4.69 1.876 7.403 1.877h0.008c8.537 0 15.488-6.917 15.492-15.418 0-0.014 0-0.029 0-0.045 0-2.115-0.43-4.129-1.207-5.96l0.038 0.1c-0.822-1.947-1.958-3.609-3.363-5.001l-0.001-0.001zM16.508 28.246h-0.005c-2.306 0-4.571-0.618-6.555-1.788l-0.469-0.278-4.874 1.273 1.3-4.727-0.305-0.485c-1.235-1.929-1.969-4.282-1.969-6.807 0-0.005 0-0.010 0-0.015v0.001c0.004-7.065 5.78-12.814 12.882-12.814 0.009-0 0.019-0 0.030-0 1.767 0 3.451 0.357 4.984 1.003l-0.084-0.032c1.624 0.68 3.010 1.622 4.173 2.786l0 0c1.168 1.158 2.113 2.539 2.765 4.074l0.031 0.083c0.646 1.557 0.976 3.225 0.972 4.91-0.004 7.065-5.781 12.816-12.876 12.816zM23.572 18.646c-0.389-0.193-2.289-1.124-2.646-1.253-0.353-0.129-0.61-0.192-0.869 0.192-0.258 0.385-1.002 1.253-1.227 1.51-0.226 0.258-0.453 0.288-0.839 0.096s-1.634-0.599-3.114-1.911c-1.15-1.022-1.926-2.283-2.154-2.67-0.225-0.386-0.023-0.594 0.172-0.786 0.174-0.172 0.386-0.45 0.578-0.674 0.194-0.225 0.258-0.385 0.388-0.642 0.129-0.258 0.065-0.482-0.033-0.676-0.096-0.193-0.871-2.090-1.194-2.862-0.313-0.747-0.631-0.647-0.87-0.657-0.246-0.010-0.492-0.015-0.74-0.014-0.411 0.011-0.778 0.193-1.033 0.479l-0.001 0.001c-0.356 0.386-1.354 1.317-1.354 3.214s1.387 3.729 1.58 3.988c0.193 0.257 2.73 4.148 6.613 5.817 0.924 0.396 1.646 0.634 2.207 0.812 0.927 0.294 1.771 0.251 2.438 0.153 0.745-0.111 2.289-0.93 2.613-1.83 0.322-0.901 0.322-1.671 0.226-1.834-0.097-0.16-0.357-0.258-0.742-0.45z"></path>
</symbol>
</defs>
</svg>
